<?xml version="1.0" encoding="UTF-8"?><svg id="Layer_1" xmlns="http://www.w3.org/2000/svg" viewBox="0 0 873.02 170.87"><defs><style>.cls-1{fill:none;opacity:.85;}.cls-2{fill:#f7f0df;}.cls-3{fill:#f2e6c7;}.cls-4{fill:#f5ecd6;}.cls-5{fill:#e9d49b;}.cls-6{fill:#e3ca83;}.cls-7{fill:#f4e9cf;}.cls-8{fill:#f1e3bf;}.cls-9{fill:#faf4e8;}.cls-10{fill:#eddcaf;}.cls-11{fill:#efe0b8;}.cls-12{fill:#fdfbf5;}.cls-13{fill:#daccbf;}.cls-14{fill:#cbb8a8;}.cls-15{fill:#d3c2b4;}.cls-16{fill:#ded1b0;}</style></defs><path class="cls-6" d="m192.93,1.67h31.08v166.91h-31.08V1.67Z"/><path class="cls-6" d="m348.2,168.58h-31.89V1.67h61.11c14.82,0,27.51,5.24,38.06,15.71,10.79,10.55,16.18,23.2,16.18,37.94v2.21c0,14.74-5.39,27.39-16.18,37.94-10.63,10.4-23.32,15.6-38.06,15.6h-29.21v57.5Zm26.07-88.58c6.67,0,12.18-2.21,16.53-6.63,4.42-4.35,6.63-9.85,6.63-16.53s-2.21-12.38-6.63-17.11c-4.42-4.66-9.93-6.98-16.53-6.98h-26.07v47.26h26.07Z"/><path class="cls-6" d="m663.04,1.67v136.53h61.57v30.38h-92.53V1.67h30.96Z"/><path class="cls-6" d="m796.71.12v136.53h61.57v30.38h-92.53V.12h30.96Z"/><polygon class="cls-15" points="546.33 80.73 496.32 108.4 516.13 138.75 554.83 93.83 546.33 80.73"/><polygon class="cls-15" points="499.27 9.65 559.11 49.39 545.77 78.22 514.13 65.4 499.27 9.65"/><polygon class="cls-14" points="478.87 113.65 479.43 122.13 490.99 110.14 471.06 108.89 477.34 113.63 478.87 113.65"/><path class="cls-13" d="m477.57,78.67l-11.37-10.75s.03-36.99,33.06-58.27l14.87,55.75-36.56,13.27Z"/><polygon class="cls-14" points="478.17 80.75 546.33 80.73 496.32 108.4 478.17 80.75"/><polygon class="cls-14" points="477.17 78.69 514.13 65.4 545.77 78.22 477.17 78.69"/><path class="cls-13" d="m471.06,108.89l7.11-28.14,37.96,58-13.83,15.68s-15.68,6.56-20.91-4.41l.1-6.15,5.23.41,6.35-6.76-10.86,2.15-3.69-1.74.41-5.12,2.25-1.74,19.98-.41-18.24-4.2-3.33,1.89-2.31-2.09.04-12.62,1.53.02.56,8.48,11.57-11.99-19.93-1.25Z"/><path class="cls-13" d="m559.11,49.39l-59.85-39.74s20.51-10.38,52.03-8.72l7.82,48.46Z"/><polygon class="cls-14" points="479.61 128.34 482.93 126.45 501.45 130.75 481.19 131.06 479.61 128.34"/><polygon class="cls-14" points="481.5 143.87 482.21 139.67 493.08 137.52 486.72 144.28 481.5 143.87"/><polygon class="cls-5" points="546.31 80.69 496.3 108.36 516.12 138.71 554.81 93.79 546.31 80.69"/><polygon class="cls-5" points="499.25 9.61 559.1 49.35 545.76 78.18 514.12 65.36 499.25 9.61"/><polygon class="cls-6" points="478.86 113.6 479.41 122.09 490.98 110.1 471.05 108.84 477.32 113.58 478.86 113.6"/><path class="cls-10" d="m477.55,78.63l-11.37-10.75s.03-36.99,33.06-58.27l14.87,55.75-36.56,13.27Z"/><polygon class="cls-6" points="478.16 80.71 546.31 80.69 496.3 108.36 478.16 80.71"/><polygon class="cls-6" points="477.16 78.65 514.12 65.36 545.76 78.18 477.16 78.65"/><path class="cls-10" d="m471.05,108.84l7.11-28.14,37.96,58-13.83,15.68s-15.68,6.56-20.91-4.41l.1-6.15,5.23.41,6.35-6.76-10.86,2.15-3.69-1.74.41-5.12,2.25-1.74,19.98-.41-18.24-4.2-3.33,1.89-2.31-2.09.04-12.62,1.53.02.56,8.48,11.57-11.99-19.93-1.25Z"/><path class="cls-10" d="m559.1,49.35l-59.85-39.74s20.51-10.38,52.03-8.72l7.82,48.46Z"/><polygon class="cls-6" points="479.59 128.3 482.92 126.41 501.43 130.71 481.17 131.02 479.59 128.3"/><polygon class="cls-6" points="481.48 143.83 482.2 139.63 493.06 137.48 486.71 144.24 481.48 143.83"/><g class="cls-1"><g class="cls-1"><path class="cls-9" d="m601.43,63.53c-.33.5-.65,1.04-1.04,1.56l-.28-.21c-.15.08-.28.35-.4.56-.16.44.12.34.19.46-.09.33-.17.66-.26,1-.2.36-1.71,2.69-3.82,5.51-1.09,1.39-2.27,2.93-3.53,4.39-.61.74-1.23,1.47-1.86,2.15l-.12.13-.03.03-.06.05-.11.1c-.07.07-.14.14-.21.19-.22-.04-.33-.07-.59-.1-.72-.06-1.37-.11-1.91-.16-1.14-.08-1.88-.12-2.09-.13-.86-.06-1.72-.11-2.58-.17-.1-.05-.2-.09-.25-.14l.06-.35c2.03.26,2.45-.26,3.72-.27.34.06,1.05.13,2.02.23.43.04,1.27.12,1.15.12.06.02.06.03.1.05.02,0,.04-.02.05-.02h.02s0-.02.01-.02l.24-.28c.66-.74,1.3-1.55,1.97-2.35.67-.8,1.33-1.63,1.95-2.47.63-.83,1.27-1.64,1.82-2.45,1.17-1.59,2.13-3.1,2.93-4.28.74-1.2,1.3-2.07,1.56-2.43.3-.45.6-.89.89-1.33.33-.18.65-.32.96-.46-.17.36-.32.68-.51,1.08Z"/><path class="cls-12" d="m599.9,65.89c-.08-.12-.35-.03-.19-.46.13-.21.26-.48.4-.56l.28.21c-.15.26-.33.55-.49.81Z"/><path class="cls-9" d="m561.3,88.69c-.7.81-1.04.44-.45-.45.04-.01.13-.04.18-.05l.28.49Z"/><path class="cls-12" d="m561.02,88.2c-.15.42.4.4-.2.78-.08-.13-.28-.23.2-.78Z"/><path class="cls-2" d="m564.66,5.94l2.58.44c1.02.04,1.98.08,3,.15.17.16.38.34.6.51-.56.23.52.57.69.98.69.14,1.38.29,2.09.43-.04.09-.08.17-.12.27-1.18-.24-1.8-.41-2.49-.69-.88-.11-1.69-.24-2.03-.52-.91-.17-1.88-.32-2.85-.47l-.47-.1c-.2-.21-.4-.41-.61-.64-.13-.12-.26-.23-.38-.36Z"/><path class="cls-9" d="m570.24,6.53c.32.06.7.13,1.03.19,1.08.35,2.32.74,2.9,1.03,5.14,1.62,10.18,3.96,15.53,6.38,2.49,1.38,5,2.94,7.83,5.31-.67-.41-1.34-.82-2.08-1.22-1.81-1.25-4.37-2.78-6.76-3.58-3.27-1.6-4.76-2.7-8.12-3.49-.31-.11-.66-.24-.97-.34-1.09-.69-1.75-1.17-2.81-1.31-.04.09-.08.17-.12.25-.52-.16-.98-.31-1.49-.47,0-.01.02-.04.02-.05-.46-.14-.98-.29-1.5-.45-.05-.01-.16-.04-.21-.06.04-.09.08-.17.12-.27-.71-.15-1.39-.29-2.09-.43-.17-.41-1.25-.75-.69-.98-.22-.18-.43-.35-.6-.51Z"/><path class="cls-2" d="m576.79,9.5c1.06.14,1.73.62,2.81,1.31-1.01-.37-1.97-.71-2.93-1.06.04-.08.08-.16.12-.25Z"/><path class="cls-2" d="m580.57,11.16c3.36.79,4.85,1.89,8.12,3.49,2.39.79,4.95,2.33,6.76,3.58.74.4,1.4.82,2.08,1.22.18.13.32.22.46.32.06.18.11.37.21.58,1.06.41,1.98,1.46,2.67,1.8.77.74,1.58,1.51,2.31,2.29,1.61,1.63,2.71,3.11,3.65,4.57.93,1.47,1.76,2.89,2.66,4.59.2.54.4,1.09.62,1.69.25.62.48,1.3.7,2,.46,1.4.78,2.9.86,4.16.12.61.15,1.24.22,1.85.07.28.15.57.19.86.15,3.06-.21,6.14-.88,9.04-.11.02-.22.09-.34.16l-.14-.92c.12-.47.13-.87.17-1.3.11-.59.21-1.18.26-1.78.05-.49.1-.97.15-1.44.02-.48.04-.96.06-1.45.07-.63.03-1.25.05-1.86.02-.61-.03-1.22-.07-1.82-.16-.39-.29-.72-.48-1.1-.08-.43-.14-.81-.23-1.3.18-.5-.31-1.73-.44-2.59-.18-.47-.39-.99-.57-1.46-.19-.58-.4-1.2-.6-1.77-.45-1.41-.24-1.74-.98-2.76-.29-.67-.63-.82-.99-1.33-.88-1.61-.86-1.05-1.19-1.43-.43-.59-.89-1.14-1.36-1.68-.67-1-1.19-1.51-1.68-2.03l-1.32-1.26c-.04-.11-.02-.19-.05-.31-.27-.21-.57-.44-.84-.64-.94-.84-1.89-1.6-2.84-2.33-.1-.21-.15-.4-.2-.58-1.12-.88-1.09-.5-1.5-.7-.27-.19-.59-.39-.87-.57-.05-.03-.14-.09-.23-.15-.48-.36-.96-.71-1.45-1.04-1.13-.67-2.27-1.3-3.43-1.89-.34-.25-.69-.52-1.04-.77-.49-.24-.98-.47-1.42-.68-.77-.39-1.53-.8-2.31-1.17-.8-.35-1.6-.67-2.4-.99-.62-.32-1.26-.59-1.9-.88-.15-.07-.28-.15-.42-.23Z"/><path class="cls-2" d="m582.34,17.72c.1.03.16.02.26.05,1.35.39,2.29.9,3.23,1.2.24.2.51.41.75.6.45.23.79.36,1.13.48.25.1.47.19.72.29.38.24.79.53,1.16.79-.25.09-.5.19-.77.29-.66-.36-1.31-.64-1.95-.94-.66-.35-1.28-.69-1.95-1.02-.37-.17-.62-.14-.98-.22-.87-.3-1.19-.64-1.75-1.27.01-.02.03-.05.04-.06l.11-.19Z"/><path class="cls-3" d="m571.54,11.83c.29,0,.57-.02.82-.05,1.51.18,2.17.24,3.34.57,1.14.51,1.68.72,2.37.86l.06-.12,1.64.58c.08.07.16.15.19.21.87.39,1.67.75,2.53,1.13.38.17.76.35,1.13.54.16.04.32.07.52.14l.44.19c.64.26,1.27.52,1.91.78.49.86,1.21.61,1.76.93,1.33.54,2.49,1.35,3.29,1.84.48.31,1.01.65,1.5.95l1.46.92c-.38.27,1.22,1.04,1.56,1.59.17.2.35.38.52.57.38.27.79.59,1.19.92.37.21.67.15,1.12.64.06.22.18.46.28.71.39.33.73.64,1.04,1.05l.33.32c.24.13.48.27.71.42.25.39.53.82.79,1.24.12.1.23.21.36.31.68.82,1.31,1.68,1.91,2.55.11.17.25.38.39.59l-.31.15c.16.53.47,1.19.92,1.9-.1.04-.18.07-.27.11-.16-.24-.35-.53-.52-.78-.64-1.09-1-1.18-1.35-1.65-.06-.08-.09-.12-.15-.19-.12-.28-.25-.58-.37-.85-.6-.9-1.15-1.12-1.77-1.64-.1-.11-.2-.21-.34-.36-.4-.55-.89-1.1-1.33-1.63-.21-.21-.48-.43-.7-.63-1.15-1.3-1.8-1.51-2.09-1.64-.19-.17-.37-.33-.51-.47l-.62-.8c-.7-.65-1.14-.47-1.77-.88-.4-.31-.76-.58-1.16-.89-.32-.33-.71-.64-1.09-.99-.39-.25-.67-.13-1.15-.49-.22-.22-.43-.45-.69-.69-.95-.6-.4.12-1.29-.28-.27-.14-.59-.3-.87-.44,0,.01-.02.04-.04.06-.28-.13-.6-.29-.88-.42-.18.09-.31.2-.49.29-.95-.3-1.88-.81-3.23-1.2l.29-.49c-.07-.08-.1-.14-.17-.21-.21-.15-.42-.29-.59-.4.43-.24,1.18.31,1.78.29.16-.06.31-.12.42-.2-.1-.14-.19-.28-.33-.44-.41-.2-.88-.42-1.31-.63-1.11-.45-2.18-.86-3.31-1.28-.42-.2-.67-.16-1-.2-.02.39,1.63,1,1.03,1.25-1.71-.81-2.72-1.21-3.92-1.56-.91-.37-1.82-.72-2.74-1.06l-.75-.21c-.15-.16-.36-.34-.56-.52.04-.09.07-.17.11-.27Z"/><path class="cls-8" d="m596.59,23.05c.48.31.99.68,1.46,1.03.24.2.53.43.77.62.11.13.19.23.3.36.43.44.84.83,1.21,1.27.35.38.87.75,1.02,1.09.4.53.82.98,1.2,1.52.29.3.57.6.86.9.02-.2.04-.38.06-.58l.11-.07c-.04-.22-.04-.4-.04-.59.15.09.29.19.47.33.21.24.43.54.62.79.25.34.52.67.76,1.02.02.17.05.33.08.49.23.33.45.64.67.96.2.33.4.66.61.99.01.05.04.15.05.2.07.19.13.35.19.49.41.6.7,1.06.9,1.45.19.4.32.72.45,1.03-.16.41.1,1.09.32,1.48.17.44.36.94.49,1.4.07-.06.13-.18.22-.24.1.04.23.13.33.17.18.62.35,1.19.47,1.78.29.68.3,1.27.47,1.81,0,.33-.02.69-.03,1.01.08.33.12.71.17,1.04-.04.16-.08.32-.11.52.03.48,0,1.02-.02,1.5.03.38.06.72.09,1.1-.22,1.26-.21,1.92-.45,2.24l-.22,1.26c.1.19.21.4.32.61-.04.27-.11.53-.17.79-.16-.06-.31-.12-.46-.17-.06.26-.11.46-.17.72.16.46-.12,1.32-.35,2.08.08.09.13.23.2.33-.15.52-.26,1.05-.42,1.5-.2.49-.38.94-.58,1.43-.01.1-.03.18-.04.28-.4.99-.83,2.02-1.3,3.04l-.17.84c-.14.16-.29.37-.45.59-.19.38-.36.77-.57,1.14-.21.36-.44.72-.67,1.08-.34.6-.66,1.14-1.03,1.72-.08-.06-.15-.12-.23-.18.15-.55.59-1.39.98-1.75.2-.56.44-1.17.62-1.74-.22.29-.43.53-.66.81-1.02,2.35-1.85,2.44-3.28,4.65.07-.48.66-1.19.77-1.63l.96-1.6.89-1.64c.08-.2.18-.44.29-.68-.17-.12-.35-.24-.51-.36-.27.44-.51.83-.77,1.26-.45,1.18-.69,1.52-1.01,1.65-.22.54-.46,1.13-.68,1.67-.38.41-.34.04-.69.35-.08.13-.17.26-.28.43-.14.13-1.64,2.32-3.75,5.01-1.08,1.33-2.27,2.81-3.51,4.21-.61.71-1.23,1.41-1.84,2.07-.39.4-.66.69-.97.96-.38-.06-.74-.12-1.06-.18-.09-.01-.17-.03-.25-.04-.15-.02-.29-.03-.43-.05-.28-.03-.54-.06-.77-.08-.95-.1-1.54-.16-1.63-.18-.54-.08-1.05-.15-1.52-.22-.52-.07-.99-.13-1.53-.2-1.65-.12-3.23.38-4.12-.19.39-.1.73-.19,1.07-.28.8.1,1.1-.14,1.33-.2.72-.1.55-.36,1.15-.39.86.06,1.72.11,2.58.17.31.1.66.22.97.33-.02.06.56.15,1.54.27.25.03.52.06.81.1.27.04.7.08.74.1.23.05.49.11.77.17.11-.07.21-.18.32-.28l.17-.15.09-.08s.04-.03.14-.14c.62-.66,1.24-1.37,1.85-2.09,1.25-1.42,2.44-2.91,3.52-4.26,2.11-2.73,3.6-4.97,3.8-5.19.79-.97.1-.69.49-1.47.2-.42.43-.87.65-1.33.11-.17.22-.39.34-.61.28-.47.58-.99.86-1.46.47-.16.76-.38.98-1.01.25-.43.51-.85.76-1.23,0,.28-.01.54-.02.82l-.33.68c-.07.8.22.58.43.53.18-.43.38-.89.56-1.33.42-.82.74-1.68,1.09-2.47.11-.17.16-.26.26-.43.18-.25.36-.55.52-.81.19-.64.23-1.08.11-1.31.25-.5.42-1.02.65-1.58-.03-.4.06-.91.19-1.44.14-.32.27-.59.43-.91.08-.56.09-1.13.13-1.69.11-.38.23-.76.32-1.15.18-1.03-.24-.78-.18-1.52.09-.54.1-1.08.16-1.67.29.29.58.6.86.91-.07-.53-.08-.98-.04-1.41.02-.43.09-.84.2-1.29-.01-.31-.01-.67-.05-.98-.04-.17-.08-.31-.13-.51,0-.46,0-.97-.04-1.48-.1,0-.19,0-.28,0-.13-.4-.24-.75-.36-1.2-.13.01-.23-.73-.42-1.37-.09.01-.19.03-.27.04-.27-.76-.55-1.52-.91-2.24-.13-.48-.23-.97-.36-1.4-.29-.42-.56-.81-.85-1.23-.35-.71-.69-1.44-1.12-2.12-.14-.21-.28-.42-.39-.59-.6-.87-1.23-1.73-1.91-2.55-.12-.1-.24-.2-.36-.31-.27-.42-.55-.85-.79-1.24-.23-.15-.47-.28-.71-.42l-.33-.32c-.31-.41-.65-.72-1.04-1.05-.11-.25-.22-.48-.28-.71-1.28-.78-1.76-1.16-2.31-1.56-.18-.19-.35-.37-.52-.57.22.07.38.12.56.16Z"/><path class="cls-2" d="m597.02,26.02c.64.21,1,.22,1.46.6.22.2.5.42.7.63-.11.09-.21.18-.32.27-.5-.41-.99-.76-1.51-1.15-.13-.14-.23-.26-.33-.36Z"/><path class="cls-4" d="m603.42,32.54l.64.96c.42.65.87,1.29,1.23,1.97.25.47.48.99.67,1.48.21.48.4.98.55,1.48-.13.26-.27.53-.39.79.22.38.41.83.62,1.27.16.17.34.39.49.62.08.47.16.89.24,1.36,0,.05-.03.14-.05.24.1.48.2.97.29,1.46.06.5.13,1.01.19,1.53-.05.09-.1.13-.14.22-.09.62-.18,1.2-.27,1.8.06.5.12.95.19,1.48-.21.49-.49,1.02-.73,1.5-.06-.52-.08-1.03-.19-1.49.1-.51.21-1.05.31-1.57-.05-.76,0-1.53-.09-2.28l-.03-1.12c-.11-.24-.23-.42-.34-.65-.06-.45-.06-.87-.09-1.32-.05-.45-.1-.86-.16-1.32-.14-.58-.22-1.12-.39-1.7-.2-.71-.39-1.42-.68-2.1-.62-1.45-1.37-2.81-2.3-4.12,0-.05-.03-.14-.07-.23l.5-.26Z"/><path class="cls-2" d="m604.5,33.58c.16.24.35.54.52.78.13.36.18.76.28,1.13-.36-.69-.81-1.32-1.23-1.97.13-.11.39.25.44.07Z"/><path class="cls-2" d="m605.79,34.31c.29.42.56.81.85,1.23.13.43.23.92.36,1.4.36.73.64,1.48.91,2.24.2,1.18.32,2.36.35,3.53-.05-.1-.11-.2-.17-.24-.1-.53-.24-1.11-.34-1.64-.22-.66-.42-1.37-.67-2.01-.13-.66-.24-1.39-.44-2.04-.25-.75-.6-1.46-.92-2.18,0-.26.04-.28.08-.29Z"/><path class="cls-2" d="m606.93,38.85c.17.65.27,1.36.39,2.02-.04.1-.07.2-.1.25-.15-.23-.33-.45-.49-.62-.21-.44-.4-.89-.62-1.27.13-.26.27-.53.39-.79.15.16.29.28.42.41Z"/><path class="cls-2" d="m608.13,50.81c-.04.56-.06,1.13-.13,1.69-.15.32-.29.59-.43.91-.13.54-.23,1.04-.19,1.44-.23.56-.4,1.08-.65,1.58.12.23.08.66-.11,1.31-.16.26-.34.56-.52.81-.1.17-.16.26-.26.43-.06-.04-.11-.07-.18-.1.1-1.62.93-3.51,1.59-5.38l.06-1.72c.14-.87.33-1.69.42-2.57.03,0,.06.01.07.02.15.54.23,1.03.33,1.58Z"/><path class="cls-2" d="m610.15,56.73l.12.06c-.05.46-.15.9-.23,1.34-.11.31-.25.67-.36.98-.19.45.21.24-.48,1.54-.06.15-.13.3-.21.5-.25.55-.5,1.09-.78,1.61l-.54.61c-.21.44-.45.93-.66,1.36-.48.97-.93,1.9-1.38,2.83-.49.71-.96,1.42-1.44,2.12-.12.23-1.76,2.79-4.04,5.82-1.16,1.49-2.44,3.14-3.75,4.67-.64.78-1.29,1.53-1.92,2.23-.79.88-1.58,1.82-2.28,2.57-3.74-.43-5.09-.48-5.37-.5-.26,0-.52,0-.79.02-1.38-.14-2.77-.23-4.16-.31.02-.14.04-.27.07-.42.88,0,1.82.01,2.71.02.67.06,1.34.12,2.01.18.08,0,.61.02,1.45.09.74.06,2.23.19,3.87.39.66-.69,1.38-1.55,2.11-2.37.63-.69,1.26-1.43,1.89-2.2,1.29-1.5,2.52-3.1,3.65-4.54,2.2-2.93,3.76-5.38,3.86-5.56.2-.19.37-.36.57-.56.75-1.23,1.49-2.47,2.16-3.76.21-.29.4-.55.63-.86.02-.18.06-.35.09-.52.17-.34.31-.63.45-.92.39-.77.77-1.6,1.07-2.36.5-1.14.87-2.28,1.27-3.47.06-.15.11-.31.16-.46.15-.23.21-.2.28-.16Z"/><path class="cls-8" d="m580.47,83.43l-.05.35c-.42.04-.84.09-1.26.14-.83,0-1.66.02-2.48.05-.56-.05-1.17-.1-1.74-.14-.68.11-.34.4-1.26.37-.77-.02-.08-.39-.96-.27-.67-.01-.98.19-1.75.31,0,.09,0,.19,0,.28-.57.13-1.12.25-1.67.37-.25.03-.5.08-.75.13-.6.14-1.24.32-1.87.52,0,.01,0,.04,0,.06-.29.14-.6.3-.89.45-.71.19-1.47.41-1.98.7-.2,0-.35-.02-.51-.04.21-.37.47-.76.7-1.14.08-.13.16-.25.19-.36.08-.07.15-.13.22-.21.24-.1.44-.2.69-.28.51-.08.97-.17,1.48-.22.16.05.32.11.53.17.55-.19,1.11-.32,1.67-.46.67-.03,1.33-.06,2-.06.21-.37.22-.52.22-.67.21-.07.37-.13.52-.19,1.25-.03,1.72-.1,1.79-.44.95-.24,1.39-.4,2.02-.41,1.79-.06,1.96.33,2.74.33l1.23.2c.73,0,1.52,0,2.24.07-.36.14-.72.28-1.05.41Z"/><path class="cls-2" d="m579.12,84.19c-.51.33-1.42.29-2.24.24-.34.28-1.1.22-1.5.2-1.31.36-3.01.43-3.42.4.16-.19.32-.36.47-.54l1.23-.1c.56-.04,1.18-.08,1.74-.1.32-.04.67-.08.98-.11.1-.08.18-.14.28-.21.83-.03,1.65-.04,2.48-.05-.02.13-.03.2-.04.27Z"/><path class="cls-2" d="m572.74,79.05c.56-.11.02-.31,1.61-.18-.55.05-1.05.12-1.61.18Z"/><path class="cls-2" d="m570.26,85.3c-1.1.26-1.88.53-2.1.91-.29.07-.62.17-.9.26-.48.09-.94.23-1.36.33l.02.13c-.74.17-1.48.49-1.69.76-.71.34-1.07.28-1.61.46-.18-.13-.38-.27-.61-.37.29-.19.57-.36.88-.51.3-.16.6-.32.94-.47,0-.01-.01-.04-.01-.06.51-.29,1.27-.51,1.98-.7.29-.14.6-.3.89-.45.55,0,1.14-.02,1.69.01.89-.12.08-.31.93-.51.31.07.64.14.96.21Z"/><path class="cls-9" d="m568.18,10.88c.47.09.99.19,1.5.31l.08-.2c.44-.11-.57-.25-.58-.64l1.22.32c.23.14.46.26.65.46.42.21.89.44,1.3.65-.24.04-.53.04-.82.05-.66-.18-1.26-.34-1.92-.52-.06.13-.11.27-.16.39-.5-.13-1.01-.26-1.46-.37-.54-.04-1.68-.24-1.95-.54-.31-.34.84-.01.91-.2l1.22.3Z"/><path class="cls-9" d="m571.99,12.62l.75.21c.92.33,1.84.69,2.74,1.06.1.02.22.02.28.01.87.35,1.68.67,2.53,1.01.5.15.48.41,1.11.54.1.15.2.28.35.44-1.41-.17-2.34-.58-4.11-1.15l-1.08-.57c-.36-.07-.95-.14-1.19-.36.7-.17-.85-.35-1.08-.6-.19-.19-.39-.4-.53-.59.06,0,.17,0,.22,0Z"/><path class="cls-9" d="m582.19,17.97c.56.64.88.97,1.75,1.27.36.08.61.06.98.22-.37-.17-.62-.14-.98-.22-.87-.3-1.19-.64-1.75-1.27Z"/><path class="cls-9" d="m582.23,17.91s-.02.04-.04.06c.01-.02.03-.05.04-.06Z"/><path class="cls-9" d="m588.82,21.42c.27-.1.52-.19.77-.29.88.49,1.68,1.01,2.48,1.52.46.61,1.81,1.52,2.53,1.76.89.57,1.18.62,1.5.86l.93.74c.11.1.2.22.33.36.92.95,1.81,1.91,2.61,2.92.53.56,1,1.16,1.48,1.75.51.57,1.02,1.15,1.48,1.75.04.09.07.18.07.23.93,1.31,1.69,2.66,2.3,4.12.29.68.48,1.4.68,2.1.16.58.24,1.12.39,1.7.06.46.11.87.16,1.32.02.45.03.87.09,1.32.11.23.23.42.34.65l.03,1.12c.1.75.05,1.51.09,2.28-.1.52-.21,1.06-.31,1.57.11.46.13.97.19,1.49-.06.38-.07.78-.15,1.16-.15.62-.28,1.18-.43,1.8-.55,1.3-.71,1.81-.76,2.22-.44,1.21-.86,2.36-1.39,3.54-.33.43-.66.86-1.03,1.26.16-.66.36-1.39.78-2.26.05-.42.09-.79.13-1.25.2-.65.58-1.38.5-2.04.29-.59.55.31.79-.89.17-.4-.08-.14,0-.47.21-.74.32-1.49.5-2.23.1-.41.24-.61.36-.86.07-.37.12-.7.2-1.12-.14-.04-.27-.07-.41-.11-.12.44-.25.89-.36,1.29-.12-.09-.2-.21-.29-.33.09-.54.18-.9.2-1.26.15-.33.29-.67.46-1.01-.02-.75.01-1.55.06-2.27-.02-.71-.05-1.34-.34-1.68.05-.54-.01-1.07-.18-1.55-.19-.48-.44-.92-.72-1.32-.81-3.85-2.81-7.42-5.66-10.5-2.84-3.09-6.44-5.7-10.35-7.89.04-.14.04-.29.04-.46,1.05.39,1.39.34,1.45.03-.37-.24-.79-.5-1.21-.77-.26.02-.56.02-.86,0-.48-.43-.93-.84-1.41-1.27.63.3,1.29.58,1.95.94Z"/><path class="cls-9" d="m600.86,22.15c-.69-.34-1.61-1.39-2.67-1.8-.1-.22-.15-.4-.21-.58,1.06.88,1.93.84,2.88,2.38Z"/><path class="cls-9" d="m612.42,44.44c.05.49.11,1.1.1,1.76-.02.66-.03,1.39-.09,2.12-.08.73-.16,1.46-.24,2.16-.11.69-.2,1.34-.26,1.91.09.74-.34.88-.42,1.5-.16.47-.28.84-.45,1.24-.03.11-.06.21-.08.27-.09.62-.21,1.36-.96,2.75.08-.45.18-.89.23-1.34l-.12-.06c.23-.73.52-1.5.73-2.23l.31-1.29c.67-2.9,1.04-5.98.88-9.04-.05-.29-.12-.57-.19-.86-.07-.62-.1-1.24-.22-1.85-.08-1.26-.4-2.76-.86-4.16-.22-.7-.45-1.38-.7-2-.22-.6-.42-1.15-.62-1.69-.9-1.71-1.73-3.12-2.66-4.59-.94-1.46-2.04-2.94-3.65-4.57,2.56,2.27,4.26,4.67,5.65,7.2,1.36,2.55,2.46,5.27,3.26,8.68.06.57.51,1.6.2,1.66.06.86.17,1.66.14,2.46Z"/><path class="cls-9" d="m609.67,59.11c-.19.45.21.24-.48,1.54.68-1.3.29-1.09.48-1.54Z"/><path class="cls-9" d="m608.2,62.77c.28-.52.53-1.07.78-1.61-.25.55-.5,1.09-.78,1.61Z"/><path class="cls-9" d="m586.02,84.52c-3.12-.04-4.48.39-6.55.57-1.81.16-3.85.22-5.62.54-.96.11-1.65.07-2.4.09-1.1.11-2.23.29-3.29.48.22-.37,1-.64,2.1-.91.55-.08,1.16-.18,1.71-.26.4.03,2.11-.04,3.42-.4.41.02,1.16.08,1.5-.2.81.05,1.73.09,2.24-.24.05,0,.15,0,.26,0,.67,0,1.28.05,1.95.08.16-.03.32-.05.53-.06,1.39.07,2.77.17,4.16.31Z"/><path class="cls-9" d="m579.36,78.57c-.05,0-.16,0-.27,0l.07-.48c.66,0,.99,0,1.31,0,.48.06.85.14,1.28.22-.77.08-1.57.17-2.39.26Z"/><path class="cls-9" d="m567.25,86.46c-.43.06-.08.25-1.34.46l-.02-.13c.42-.1.88-.24,1.36-.33Z"/><path class="cls-4" d="m561.27,6.25c.14-.25.26-.61,2.33-.39.33.02.72.06,1.05.07.12.13.25.24.38.36.22.22.42.43.61.64-.43-.07-.85-.13-1.28-.2-1.25-.13-2.15-.3-3.1-.48Z"/><path class="cls-4" d="m566.13,7.04c.97.15,1.94.3,2.85.47.35.28,1.15.41,2.03.52.06-.01.18-.01.24-.01.11,0,.23.02.29,0,.66.22,1.32.45,1.97.7.05.01.16.04.21.06,1.14.73,1.11.41,1.47.5.51.16.98.31,1.49.47.96.35,1.93.7,2.93,1.06.31.11.66.24.97.34.14.08.28.16.42.23.21.41,1.36.74,1.9.88.81.32,1.61.64,2.4.99,1.07.71,1.44.83,1.81.95.2.09.35.16.49.22.44.21.93.45,1.42.68.35.25.69.51,1.04.77-.28-.08-.56-.14-.84-.2-.92-.45-1.85-.9-2.78-1.32-.49-.22-.98-.44-1.43-.63-.47-.25-.89-.47-1.37-.73-1.11-.53-1.3-.42-1.74-.61-.33-.06-.65-.14-1.03-.23l-1.11-.63c-2.07-.86-4.03-1.2-5.81-2.03-.52-.15-.98-.28-1.49-.43-.83-.22-1.67-.42-2.51-.6-.29-.18-.58-.35-.88-.52-.97-.29-2.34-.43-2.95-.91Z"/><path class="cls-4" d="m580.16,16.11c.49-.16,1.33.34,1.97.56.17.11.39.25.59.4.07.08.1.14.17.21l-.29.49c-.1-.03-.16-.02-.26-.05-.74-.53-1.42-1.08-2.18-1.61Z"/><path class="cls-4" d="m587.24,19.03c.27.14.59.3.87.44.22.13.43.27.64.41-.11.15-.21.3-.32.45-.25-.1-.47-.19-.72-.29-.15-.32-.35-.65-.51-.95.02-.02.03-.05.04-.06Z"/><path class="cls-3" d="m554.84,6.3c.19-.02.36-.04.59-.06.48.08,1.01.18,1.48.28,0-.19-.05-.39-.05-.58.91.12,1.93.05,2.78.37.53.03,1.08.05,1.59.08.34.15.62.31.91.45.94.19,1.88.39,2.77.57,1.72.24,3.39.63,5.04,1.06.84.18,1.68.39,2.51.6.52.15.98.28,1.49.43,1.78.82,3.74,1.17,5.81,2.03l1.11.63c.68.75,1.44.79,2.05,1.01.34.16.63.31.96.46,1.06.81,1.67.93,1.87.8.15.07.29.13.49.22.94.4,1.88.82,2.81,1.25.16.15.28.26.4.37-.45.08-.32.18-.2.29.54.34,1.09.38,1.31.36,1.33.53,2.94,1.43,4.06,2.27.5.33,1.02.7,1.49,1.06.57.49,1.14.59,1.44.74.34.28.67.56,1,.83.78.61.69.9,1.62,1.66.54.6.65.3.94.55.53.47,1,1.01,1.46,1.47.36.41.69.85.99,1.23.5.44.47.07.93.63.47.54.93,1.09,1.36,1.68.38.48.73.98,1.06,1.49.17.35.33.63.47.99-.05.02-.12.05-.19.08.56,1.3.87,1.29,1.1,1.8.05.1.07.15.12.25.38,1.54.83,2.25,1.19,2.68.18.46.38.99.57,1.46.13.86.62,2.09.44,2.59.09.49.15.87.23,1.3.03.38,0,.71,0,1.08.08.71.14,1.36.15,2.07.06.55.14,1.05.14,1.6-.06.49-.13,1.02-.19,1.55v1.32c-.06.6-.15,1.19-.26,1.77-.11.35-.21.66-.3.97-.11-.21-.22-.42-.32-.61l.22-1.26c.24-.32.23-.98.45-2.24-.03-.38-.06-.72-.09-1.1.02-.48.05-1.02.02-1.5.04-.21.08-.37.11-.52-.06-.33-.1-.71-.17-1.04,0-.32.02-.69.03-1.01-.17-.54-.18-1.13-.47-1.81-.12-.59-.29-1.16-.47-1.78-.1-.04-.23-.13-.33-.17-.09.06-.15.18-.22.24-.13-.46-.32-.96-.49-1.4-.21-.38-.47-1.07-.32-1.48-.13-.32-.26-.64-.45-1.03-.2-.39-.5-.85-.9-1.45-.05-.14-.11-.29-.19-.49-.01-.05-.04-.15-.05-.2-.21-.34-.41-.67-.61-.99-.22-.32-.44-.63-.67-.96-.04-.16-.06-.32-.08-.49-.24-.35-.51-.68-.76-1.02-.19-.25-.41-.56-.62-.79-.17-.14-.31-.24-.47-.33-.08-.14-.16-.27-.28-.44-.03-.17-.04-.35-.08-.51-.29-.18-.63-.39-.92-.58-.18-.32-.32-.62-.52-.92-.72-.71-1.47-1.39-2.24-2.05-.27-.19-.6-.38-.88-.55-.28-.24-.51-.46-.78-.71,0,0,.03-.03.04-.04-.37-.3-.78-.64-1.15-.94-.24-.13-.49-.25-.74-.36-.2-.24-.45-.52-.65-.78-.98-.65-2.02-1.3-3.03-1.88-.53-.19-1.14-.41-1.34-.76-.59-.34-1.14-.66-1.74-1-1.28-.55-1.92-1.12-3.23-1.61-.42-.22-.89-.47-1.32-.66-.26-.19-.44-.39-1.1-.62-.55-.12-1.08-.23-1.57-.33-.25-.2-.56-.4-.81-.6-.65-.25-1.29-.49-1.95-.71l-1.3-.23c-.21-.15-.4-.28-.61-.43-.39-.15-.78-.31-1.18-.46.12-.13-.55-.31-1.16-.5-.6-.11-1.22-.22-1.82-.33-.55-.18-1.1-.36-1.66-.54-.69-.11-.93-.36-1.41-.59-.6-.06-1.26-.13-1.85-.19-.15-.05-.29-.12-.43-.18-1.31-.54-1.51-.32-2.01-.47-.05-.01-.16-.03-.26-.06-.02-.09-.1-.2-.11-.31-.5-.15-1-.31-1.46-.45-.39.46-1.36-.12-2.12-.15-.95-.82-2.77-.52-4.77-.82-.02.07-.04.13-.06.2-.74-.12-1.54-.26-2.28-.38.03-.11.06-.21.09-.34Z"/><path class="cls-7" d="m581.9,12.4c.44.19.63.08,1.74.61.48.26.9.48,1.37.73.45.19.94.4,1.43.63.94.41,1.86.87,2.78,1.32.28.06.57.13.84.2,1.16.59,2.31,1.22,3.43,1.89.49.33.98.68,1.45,1.04.09.06.18.12.23.15.28.18.6.38.87.57.73.65,1.11.94,1.38,1.22.08-.01.2.02.32.06.96.73,1.9,1.49,2.84,2.33.17.3.35.62.52.92-.29-.25-.4.05-.94-.55-.92-.76-.84-1.06-1.62-1.66-.33-.27-.66-.55-1-.83-.3-.16-.87-.25-1.44-.74-.47-.36-1-.74-1.49-1.06-1.11-.84-2.72-1.75-4.06-2.27-.21.02-.77-.02-1.31-.36-.12-.11-.25-.21.2-.29-.12-.11-.24-.22-.4-.37-.94-.42-1.87-.85-2.81-1.25-.2-.09-.34-.15-.49-.22-.2.12-.81.01-1.87-.8-.33-.16-.62-.3-.96-.46-.61-.22-1.37-.26-2.05-1.01.37.09.7.17,1.03.23Z"/><path class="cls-4" d="m593.49,17.77c.49.33.98.68,1.45,1.04-.48-.36-.96-.71-1.45-1.04Z"/><path class="cls-4" d="m596.05,19.53c.41.19.38-.18,1.5.7.05.18.1.36.2.58-.12-.03-.24-.07-.32-.06-.27-.28-.65-.57-1.38-1.22Z"/><path class="cls-4" d="m593.49,22.82c.63.42,1.07.23,1.77.88l.62.8c.14.14.33.31.51.47.29.13.94.34,2.09,1.64-.47-.38-.82-.4-1.46-.6l-.93-.74c-.32-.24-.61-.29-1.5-.86-.03-.25-.12-.52-.2-.8-.3-.26-.59-.52-.9-.79Z"/><path class="cls-4" d="m600.59,23.13c.27.21.57.44.84.64.03.12.01.2.05.31-.14-.03-.24-.02-.37-.04-.17-.3-.35-.61-.52-.92Z"/><path class="cls-7" d="m598.86,27.52c.71.43,1.13.91,1.61,1.4.01,0,.04-.03.05-.03.14.14.24.25.34.36.3.14.63.34.91.5.43.65,1.31,1.55,1.38,2.18.35.47.71.56,1.35,1.65-.05.18-.3-.18-.44-.07l-.64-.96-.5.26c-.46-.61-.96-1.19-1.48-1.75-.47-.59-.95-1.19-1.48-1.75-.79-1.02-1.69-1.98-2.61-2.92.52.39,1.01.74,1.51,1.15Z"/><path class="cls-4" d="m599.19,27.25c.44.53.94,1.08,1.33,1.63-.01,0-.04.03-.05.03-.48-.49-.9-.97-1.61-1.4.11-.09.21-.18.32-.27Z"/><path class="cls-4" d="m605.85,29.05c.33.38.31-.18,1.19,1.43.35.5.69.66.99,1.33.74,1.02.53,1.36.98,2.76-.19-.29-.4-.62-.59-.91-.05-.1-.07-.15-.12-.25-.3-1.17-.64-1.28-.91-1.88-.15-.36-.3-.64-.47-.99-.33-.52-.69-1.01-1.06-1.49Z"/><path class="cls-4" d="m611.27,42.24c.02.17.03.33.06.55.04.61.09,1.21.07,1.82-.01.61.02,1.23-.05,1.86-.02.49-.04.97-.06,1.45-.05.48-.1.95-.15,1.44-.05.6-.15,1.19-.26,1.78-.05.44-.05.83-.17,1.3l.14.92c.12-.07.23-.15.34-.16l-.31,1.29c-.21.74-.5,1.5-.73,2.23-.1.07-.18.09-.28.16-.04.16-.1.31-.16.46-.4,1.19-.77,2.33-1.27,3.47-.09-.49.05-.78.19-1.69.22-.48.43-.92.65-1.4-.1-.11-.19-.28-.28-.45.16-.45.27-.99.42-1.5.32-.97.56-1.96.79-2.95.06-.26.13-.52.17-.79.1-.31.19-.62.3-.97.11-.58.2-1.17.25-1.77v-1.32c.08-.53.14-1.07.2-1.55,0-.55-.09-1.05-.14-1.6,0-.71-.07-1.36-.15-2.07,0-.38.03-.71,0-1.08.15.19.29.37.43.55Z"/><path class="cls-4" d="m608.27,48.14c-.05.75.37.49.18,1.52-.09.39-.22.77-.32,1.15-.1-.55-.18-1.04-.33-1.58l.47-1.1Z"/><path class="cls-7" d="m609.28,57.74c-.22.48-.43.92-.65,1.4.08.53-.72,2.05-.19,1.69-.31.75-.68,1.59-1.07,2.36-.14.29-.28.58-.45.92-.23.22-.5.49-.75.7.02.21.04.42.03.68-.67,1.29-1.41,2.53-2.16,3.76-.2.19-.37.36-.57.56-.1.18-1.66,2.63-3.86,5.56-1.13,1.44-2.36,3.04-3.65,4.54-.63.76-1.26,1.5-1.89,2.2-.73.82-1.45,1.68-2.11,2.37-1.64-.2-3.13-.33-3.87-.39-.84-.07-1.36-.1-1.45-.09-.66-.06-1.34-.12-2.01-.18.38-.19.75-.37,1.16-.57.08,0,.49.03,1.39.1.45.04,1.02.08,1.73.14.74.06,1.67.15,2.77.27,1.7-1.78,4.47-4.85,6.76-7.81,1.18-1.45,2.17-2.88,2.95-3.93.74-1.09,1.23-1.81,1.3-1.92.2-.17.4-.35.57-.48.5-1.19.71-1.69.93-2.22.38-.57.69-1.12,1.03-1.72.23-.36.45-.71.67-1.08.21-.37.38-.76.57-1.14.15-.21.3-.43.45-.59l.17-.84c.46-1.02.9-2.05,1.3-3.04.01-.1.03-.18.04-.28.2-.49.38-.94.58-1.43.09.17.19.33.28.45Z"/><path class="cls-4" d="m606.83,64.63c-.23.31-.42.57-.63.86,0-.26,0-.47-.03-.68.25-.21.52-.48.75-.7-.03.17-.07.34-.09.52Z"/><path class="cls-4" d="m581.86,84.22c-.21.01-.37.03-.53.06-.67-.04-1.28-.07-1.95-.08-.1,0-.21,0-.26,0,0-.07.02-.14.04-.27.42-.06.84-.11,1.26-.14.47,0,.98.01,1.5.02-.02.14-.04.27-.07.42Z"/><path class="cls-4" d="m582.49,78.75c-.83.06-1.6.16-2.37.24-.28-.02-.53-.05-.81-.07l.05-.35c.82-.09,1.61-.17,2.39-.26.27.02.54.05.8.09l-.06.35Z"/><path class="cls-4" d="m571.97,85.04c-.55.08-1.16.18-1.71.26-.31-.07-.64-.14-.96-.21-.54.5-1.28.55-1.67.65-.3-.05-.89,0-.96-.15,0-.01,0-.04,0-.06.63-.2,1.27-.38,1.87-.52.25-.04.5-.09.75-.13.55-.12,1.1-.24,1.67-.37.52,0,1.02,0,1.47,0-.16.17-.32.35-.47.54Z"/><path class="cls-4" d="m560.76,85.11c.54.22-.51.99-.12,1.19-.03.07-.1.17-.17.27-.04.03-.13.09-.22.15-.29.13-.57.27-.87.49-.47.35-.72.63-.92.75-.2.13-.32.14-.4.09-.17-.09-.17-.44-.44-.47.3-.49.52-.93.84-1.33.3-.09.58-.21.88-.25.39-.26.77-.53,1.17-.74.05-.03.15-.08.25-.14Z"/><path class="cls-4" d="m558.23,85.17c-.45.29-.91.55-1.33.94,0-.12-.1-.14-.07-.31.03-.17.2-.47.81-1.04.83-.24,1.53-.3.6.41Z"/><path class="cls-3" d="m607.07,38.83c.25.64.45,1.35.67,2.01.1.53.25,1.11.34,1.64-.2,0-.41,0-.62,0-.08-.47-.16-.89-.24-1.36.04-.05.06-.15.1-.25-.12-.65-.23-1.37-.39-2.02.1-.02.12-.02.14-.03Z"/><path class="cls-3" d="m608.18,39.15c.19.64.29,1.38.42,1.37.12.45.23.8.36,1.2.07,1.21.19,1.67.32,1.47.05.21.08.35.13.51.04.31.04.67.05.98-.12.45-.18.86-.2,1.29-.04.43-.03.88.04,1.41-.28-.31-.57-.62-.86-.91,0-.2.03-.45.02-.69-.02-.52-.03-1.04-.05-1.55-.04-.51-.1-1.01-.15-1.51-.03-1.17-.15-2.35-.35-3.53.09-.01.19-.03.27-.04Z"/><path class="cls-3" d="m607.73,49.22c-.09.88-.28,1.7-.42,2.57-.16,0-.34.04-.51.08.07-.39.09-.78.15-1.16.24-.47.52-1.01.73-1.5.01,0,.04.01.06.01Z"/><path class="cls-3" d="m610.21,52.84c-.23,1-.47,1.99-.79,2.95-.08-.09-.13-.23-.2-.33.24-.76.52-1.62.35-2.08.06-.26.11-.46.17-.72.15.06.3.11.46.17Z"/><path class="cls-7" d="m607.31,51.79l-.06,1.72c-.66,1.88-1.49,3.76-1.59,5.38.06.04.11.07.18.1-.35.79-.67,1.65-1.09,2.47-.07-.05-.16-.1-.23-.15-.14.08-.29.18-.43.26,0-.28.01-.54.02-.82-.25.37-.5.8-.76,1.23-.17-.11-.35-.24-.52-.35-.13.44-.28.93-.46,1.36-.28.47-.58.99-.86,1.46-.02-.32-.03-.64-.07-.91.19-.41.34-.72.51-1.08.29-.31.54-.58.82-.87.15-.31.28-.58.43-.89.37-.41.7-.84,1.03-1.26.06.04.13.08.17.11.66-1.34,1.12-2.43,1.4-3.56-.05-.03-.12-.06-.18-.09.05-.41.2-.91.76-2.22.15-.62.28-1.18.43-1.8.17-.04.35-.08.51-.08Z"/><path class="cls-3" d="m605.79,55.97c-.27,1.13-.73,2.22-1.4,3.56-.05-.03-.11-.07-.17-.11.53-1.18.95-2.34,1.39-3.54.06.03.13.06.18.09Z"/><path class="cls-3" d="m606.73,56.44c.12.23.08.66-.11,1.31-.16.26-.34.56-.52.81.18-.25.36-.55.52-.81.19-.64.23-1.08.11-1.31Z"/><path class="cls-3" d="m604.74,61.45c-.18.43-.38.9-.56,1.33-.21.04-.5.27-.43-.53l.33-.68c.14-.08.29-.18.43-.26.07.05.16.1.23.15Z"/><path class="cls-11" d="m604.94,65.48c-.39.36-.84,1.19-.98,1.75-.41.68-.79,1.31-1.19,1.99-.11.15-2.1,3.18-4.6,6.33-2.45,3.16-5.5,6.49-6.71,7.7-1.66-.18-2.69-.26-3.37-.32-.66-.05-.91-.07-.95-.08l-1.35.4c-.35-.06-.67-.12-1.02-.18-1.05-.04-2.15-.04-3.25-.05-.72-.07-1.51-.08-2.24-.07l-1.23-.2c-.78,0-.95-.39-2.74-.33-.63.01-1.06.17-2.02.41-.07.34-.54.4-1.79.44-.16.06-.31.12-.52.19,0,.15,0,.29-.22.67-.67,0-1.33.03-2,.06-.56.15-1.12.28-1.67.46-.21-.06-.37-.11-.53-.17-.51.05-.97.14-1.48.22.24-.21.47-.4.71-.62.55-.27,1.11-.49,1.68-.73.35-.35,1.62-.86.76-1.04.15-.19.32-.39.47-.58-.27-.1-.49-.2-.77-.35-.16.03-.33.06-.55.1-.28-.14-.51-.29-.8-.42.44-.19.88-.35,1.32-.52.16-.12.34-.25.5-.36.4-.16.75-.29,1.12-.44.73-.12,1.4-.24,2.12-.31.17-.07.34-.13.56-.2l.51-.18c.42.1.87.21,1.29.31.11.02.21.04.27.06.62-.1,1.26-.19,1.88-.29,1.04-.1,2.09-.16,3.13-.21.28.02.53.05.81.07.47.09,1,.2,1.47.29-.23.07-.53.3-1.33.2-.34.09-.67.17-1.07.28.89.57,2.47.06,4.12.19.54.07,1.01.13,1.53.2.47.07.99.14,1.52.22.09.03.68.08,1.63.18.24.03.5.05.77.08.14.02.28.03.43.05.08.01.16.03.25.04.32.05.68.11,1.06.18.31-.27.58-.57.97-.96.62-.66,1.24-1.36,1.84-2.07,1.25-1.41,2.44-2.88,3.51-4.21,2.11-2.68,3.61-4.88,3.75-5.01.11-.17.2-.3.28-.43.34-.31.3.06.69-.35.22-.54.46-1.13.68-1.67.32-.13.56-.47,1.01-1.65.26-.43.5-.83.77-1.26.17.12.35.24.51.36-.11.24-.21.48-.29.68l-.89,1.64-.96,1.6c-.1.45-.69,1.15-.77,1.63,1.43-2.21,2.27-2.3,3.28-4.65.23-.28.44-.52.66-.81-.19.57-.42,1.18-.62,1.74Z"/><path class="cls-3" d="m603.34,61.97c-.22.63-.51.85-.98,1.01.18-.43.33-.92.46-1.36.17.11.35.24.52.35Z"/><path class="cls-3" d="m601.49,64.43c-.12.22-.23.44-.34.61-.22.46-.44.91-.65,1.33-.39.78.3.5-.49,1.47-.2.22-1.69,2.46-3.8,5.19-1.08,1.35-2.27,2.84-3.52,4.26-.61.72-1.23,1.42-1.85,2.09-.1.11-.1.11-.14.14l-.09.08-.17.15c-.11.1-.21.21-.32.28-.28-.06-.53-.12-.77-.17-.04-.02-.47-.07-.74-.1-.29-.04-.56-.07-.81-.1-.98-.12-1.56-.21-1.54-.27-.31-.1-.66-.22-.97-.33.21,0,.95.04,2.09.13.55.05,1.19.1,1.91.16.26.04.37.06.59.1.07-.05.14-.13.21-.19l.11-.1.06-.05.03-.03.12-.13c.63-.68,1.24-1.41,1.86-2.15,1.26-1.46,2.44-3,3.53-4.39,2.11-2.82,3.62-5.15,3.82-5.51.09-.34.17-.66.26-1,.15-.25.33-.55.49-.81.39-.52.71-1.06,1.04-1.56.03.27.04.58.07.91Z"/><path class="cls-3" d="m604.19,67.4c-.22.53-.43,1.03-.93,2.22-.17.13-.37.31-.57.48.04-.31.08-.62.08-.89.41-.68.79-1.31,1.19-1.99.08.06.15.12.23.18Z"/><path class="cls-3" d="m585.79,83.25c-.4.2-.78.38-1.16.57-.89,0-1.83-.01-2.71-.02-.52,0-1.04-.02-1.5-.02l.05-.35c.33-.13.7-.27,1.05-.41,1.1,0,2.2,0,3.25.05.35.06.67.12,1.02.18Z"/><path class="cls-3" d="m574.3,79.42c-.05-.01-.16-.03-.27-.06-.6-.04-1.19-.11-1.8-.14l.51-.18c.55-.07,1.06-.14,1.61-.18.16,0,.33.03.54.04-.24.17-.41.34-.59.51Z"/><path class="cls-3" d="m573.67,84.4l-1.23.1c-.45,0-.95,0-1.47,0,0-.09,0-.19,0-.28.77-.12,1.08-.32,1.75-.31.88-.12.19.26.96.27,0,.06,0,.13-.01.2Z"/><path class="cls-8" d="m568.44,80.17c-.16.12-.34.25-.5.36-.44.17-.88.34-1.32.52.29.13.52.28.8.42.22-.04.38-.07.55-.1.28.16.5.26.77.35-.15.19-.32.39-.47.58.86.19-.41.69-.76,1.04-.57.24-1.13.46-1.68.73-.29-.3-.72-.25-.58-.42.15-.07.31-.14.52-.21,1.82-.56,1.13-.68,1.97-.98-.59.02-1.18.09-1.83.15-.22-.02-.49,0-.77-.01l-.02-.22c.69-.31,1.4-.56,2.05-.82-.66.14-1.37.27-2.08.47-.07-.15-.2-.28-.33-.41-.51.05-1.08.15-1.66.26-.96.31-1.99.72-2.97,1.2-.25.07-.44.09-.64.12.55-.87,2.26-1.56,4.39-2.13.45-.16.91-.28,1.36-.43.52-.02,1.1-.05,1.66-.08.16-.12.34-.25.49-.37-.06-.06-.17-.1-.29-.15.85-.14,1.64-.24,2.47-.32-.37.15-.72.28-1.12.44Z"/><path class="cls-3" d="m565.75,83.46c-.21.07-.36.14-.52.21-.42.1-.83.23-1.25.36.07-.25.09-.47.17-.7.51-.29.16-.47.96-.7.28,0,.55,0,.77.01.65-.06,1.24-.13,1.83-.15-.85.3-.15.42-1.97.98Z"/><path class="cls-3" d="m566.88,80.58c-.56.03-1.14.05-1.66.08.62-.21,1.24-.42,1.86-.6.11.05.23.09.29.15-.16.12-.34.25-.49.37Z"/><path class="cls-3" d="m567.14,81.59c-.65.26-1.35.51-2.05.82-.17-.02-.34-.05-.57-.06-1.64.18-1.88.8-3.09,1.23-.13.19-.27.36-.44.58-.42.21-.84.46-1.25.7-.4.29-.82.54-1.21.88.02-.22.05-.45.03-.63.33-.26.66-.54.99-.78.34-.22.66-.45.98-.66-.12-.2-.3-.36-.43-.56.97-.48,2-.89,2.97-1.2.58-.1,1.15-.21,1.66-.26.13.13.25.26.33.41.72-.2,1.43-.33,2.08-.47Z"/><path class="cls-3" d="m563.29,86.69c.16.02.31.04.51.04,0,.01.01.04.01.06-.34.15-.64.3-.94.47-.31.15-.59.33-.88.51-.35.12-.61.26-.97.43-.04.01-.13.04-.18.05-.02-.3-.02-.61-.01-.91.28-.18.55-.29.82-.4.72-.55,1.55-.97,2.33-1.38-.23.38-.5.77-.7,1.14Z"/><path class="cls-7" d="m565.81,84.08c-.24.21-.47.4-.71.62-.25.09-.44.18-.69.28-.08.07-.15.13-.22.21-.03.12-.11.23-.19.36-.79.41-1.62.83-2.33,1.38-.27.11-.54.22-.82.4-.16-.22-.37-.43-.58-.62.09-.06.17-.12.22-.15.07-.1.14-.2.17-.27-.39-.2.66-.97.12-1.19-.1.05-.2.11-.25.14-.41.2-.79.48-1.17.74-.3.05-.58.16-.88.25.03-.18.07-.36.07-.51.39-.34.8-.58,1.21-.88.42-.24.83-.49,1.25-.7.17-.22.31-.39.44-.58,1.2-.43,1.45-1.05,3.09-1.23.23.02.4.05.57.06l.02.22c-.81.24-.45.41-.96.7-.08.24-.1.45-.17.7.42-.13.83-.26,1.25-.36-.14.17.28.12.58.42Z"/><path class="cls-3" d="m561.29,84.16c.47.2.34.38-.53.96-.1.05-.2.11-.25.14-.05-.12-.1-.26-.14-.38.28-.23.5-.53.92-.71Z"/><path class="cls-7" d="m561.27,6.25c1.02.15,2.08.31,3.1.48.43.07.85.13,1.28.2l.47.1c.61.48,1.98.62,2.95.91.29.18.58.35.88.52-1.66-.43-3.33-.82-5.04-1.06-.89-.18-1.83-.38-2.77-.57-.29-.14-.57-.3-.91-.45.01-.04.03-.08.05-.14Z"/><path class="cls-7" d="m569.63,11.31c.66.18,1.26.34,1.92.52-.04.09-.07.17-.11.27.2.18.41.36.56.52-.06,0-.17,0-.22,0,0-.12-.78-.27-1.88-.73-.14-.06-.28-.12-.43-.19.05-.12.11-.26.16-.39Z"/><path class="cls-7" d="m572.46,9.07c.52.15.98.28,1.49.43-.52-.15-.98-.28-1.49-.43Z"/><path class="cls-7" d="m582.69,15.69c.42.2.89.43,1.31.63.15.16.24.3.33.44-.11.08-.26.14-.42.2-.6.01-1.35-.53-1.78-.29-.64-.21-1.47-.72-1.97-.56-.13-.07-.28-.15-.41-.21-.14-.16-.25-.29-.35-.44.6-.25-1.05-.86-1.03-1.25.33.04.58,0,1,.2,1.13.41,2.2.83,3.31,1.28Z"/><path class="cls-7" d="m586.32,18.67c.28.13.6.29.88.42.16.3.36.64.51.95-.34-.13-.68-.26-1.13-.48-.24-.19-.51-.41-.75-.6.18-.09.31-.2.49-.29Z"/><path class="cls-7" d="m590.09,20.45c.49.36.77.24,1.15.49.38.34.77.66,1.09.99.4.31.76.58,1.16.89.31.27.61.53.9.79.08.28.17.55.2.8-.72-.24-2.07-1.15-2.53-1.76-.8-.51-1.6-1.03-2.48-1.52-.37-.26-.77-.55-1.16-.79.11-.16.21-.3.32-.45-.21-.14-.42-.28-.64-.41.9.4.35-.32,1.29.28.26.24.47.47.69.69Z"/><path class="cls-7" d="m605.79,34.31c0,.11-.06.18-.08.29.32.72.67,1.43.92,2.18.05.04.1.13.16.21.15.62.18,1.22.28,1.83-.03,0-.04,0-.14.03-.13-.12-.28-.24-.42-.41-.15-.5-.34-1-.55-1.48-.19-.49-.43-1.01-.67-1.48-.09-.37-.15-.76-.28-1.13.1-.04.18-.07.27-.11-.45-.71-.76-1.38-.92-1.9l.31-.15c.43.68.76,1.41,1.12,2.12Z"/><path class="cls-7" d="m607.38,31.53c.34.7.73,1.36,1.03,2.13-.05-.1-.07-.15-.12-.25-.23-.51-.53-.5-1.1-1.8.07-.03.13-.06.19-.08Z"/><path class="cls-7" d="m608.08,42.48c.06.05.12.15.17.24.05.49.11.99.15,1.51.02.51.03,1.03.05,1.55.01.25-.01.5-.02.69-.06.59-.07,1.13-.16,1.67l-.47,1.1s-.04-.01-.07-.02c-.01,0-.04-.01-.06-.01-.07-.53-.13-.98-.19-1.48.09-.6.18-1.18.27-1.8.04-.09.08-.13.14-.22-.06-.51-.13-1.02-.19-1.53-.1-.49-.2-.98-.29-1.46.02-.1.04-.19.05-.24.22,0,.42,0,.62,0Z"/><path class="cls-7" d="m581.59,79.28c-.47-.09-1-.2-1.47-.29.77-.08,1.55-.17,2.37-.24.05.04.15.09.25.14-.6.03-.43.29-1.15.39Z"/><path class="cls-7" d="m579.31,78.92c-1.04.04-2.08.11-3.13.21-.37-.09-.69-.16-1.07-.23,1.33-.14,2.65-.24,3.97-.32.11,0,.22,0,.27,0l-.05.35Z"/><path class="cls-7" d="m576.4,84.18c-.32.04-.67.08-.98.11-.57.02-1.18.06-1.74.1,0-.07,0-.15.01-.2.92.03.58-.26,1.26-.37.57.05,1.17.1,1.74.14-.1.08-.18.13-.28.21Z"/><path class="cls-7" d="m560.54,83.66c-.32.21-.65.43-.98.66-.33.24-.66.52-.99.78-.08-.02-.2.02-.33.07.94-.71.23-.65-.6-.41.31-.33.62-.57.92-.84.3-.27.6-.5.91-.71.2-.03.39-.05.64-.12.13.19.31.36.43.56Z"/><path class="cls-8" d="m557.09,6.83c2,.3,3.82,0,4.77.82.77.03,1.73.61,2.12.15.06-.02.18-.02.28-.01.4.16.78.3,1.18.46.02.11.09.21.11.31.1.02.21.05.26.06.5.15.7-.07,2.01.47.14.06.29.13.43.18.6.06,1.26.13,1.85.19.47.23.71.48,1.41.59.56.18,1.11.36,1.66.54.6.11,1.22.22,1.82.33.61.19,1.28.38,1.16.5.4.16.79.31,1.18.46.21.15.4.29.61.43l1.3.23c.65.23,1.3.47,1.95.71.25.2.55.41.81.6.49.1,1.01.21,1.57.33.66.23.85.44,1.1.62.43.2.9.44,1.32.66,1.31.49,1.95,1.06,3.23,1.61.6.34,1.15.66,1.74,1,.2.34.82.57,1.34.76,1.01.59,2.05,1.23,3.03,1.88.2.26.45.53.65.78-.88-.13-1.95-1.04-2.94-1.57-.46-.25-.89-.48-1.35-.73-.49-.3-.99-.59-1.53-.92-.63-.47-.96-.27-1.85-.81-.03.05-.06.08-.08.12-.54-.31-1.26-.07-1.76-.93.4.14.8.28,1.22.42-.54-.41-1.08-.83-1.64-1.22-.79-.32-1.59-.61-2.39-.9.15.24.32.5.47.73-.2-.07-.36-.11-.52-.14-.37-.19-.74-.37-1.13-.54-.85-.38-1.66-.74-2.53-1.13-.03-.06-.11-.13-.19-.21l-1.64-.58-.06.12c-.69-.13-1.22-.35-2.37-.86-1.17-.33-1.83-.39-3.34-.57-.42-.21-.89-.44-1.3-.65-.2-.2-.43-.33-.65-.46l-1.22-.32c-.14-.08-.27-.16-.41-.25-.56-.14-1.18-.29-1.74-.43-.76-.31-1.54-.63-2.32-.96-1.3-.25-2.78-.62-4.02-.73-.65-.37-2.37-.49-3.66-.96.02-.07.04-.13.06-.2Z"/><path class="cls-11" d="m588.31,17.47c.89.54,1.22.34,1.85.81.54.32,1.04.62,1.53.92.46.25.89.48,1.35.73.98.53,2.06,1.44,2.94,1.57.25.12.5.23.74.36.36.3.77.63,1.15.94-.01.01-.03.03-.04.04.27.25.5.47.78.71.14.3.34.61.47.92,1.09.56,2.36,1.77,2.21,2.02.33.21.6.39.9.63.34.33.75.68,1.06,1.05.13.17.2.31.28.44,0,.18,0,.37.04.59l-.11.07c-.02.2-.04.38-.06.58-.29-.3-.57-.6-.86-.9-.38-.54-.8-.99-1.2-1.52-.15-.34-.67-.71-1.02-1.09-.37-.43-.78-.82-1.21-1.27-.1-.12-.19-.23-.3-.36-.24-.2-.53-.43-.77-.62-.46-.35-.97-.72-1.46-1.03-.18-.04-.34-.09-.56-.16-.34-.54-1.93-1.31-1.56-1.59l-1.46-.92c-.48-.31-1.02-.65-1.5-.95-.8-.49-1.95-1.3-3.29-1.84.02-.04.05-.07.08-.12Z"/><path class="cls-8" d="m599.49,24.1c.77.66,1.52,1.33,2.24,2.05.2.31.34.6.52.92.18.06.38.13.56.19.15.15.26.27.37.39.04.17.05.35.08.51-.31-.36-.72-.71-1.06-1.05-.3-.24-.57-.42-.9-.63.15-.25-1.12-1.46-2.21-2.02-.13-.3-.33-.62-.47-.92.28.17.61.36.88.55Z"/><path class="cls-8" d="m602.69,70.1c-.07.11-.56.83-1.3,1.92-.78,1.05-1.78,2.49-2.95,3.93-2.29,2.96-5.06,6.03-6.76,7.81-1.1-.12-2.03-.21-2.77-.27-.71-.06-1.28-.1-1.73-.14-.89-.06-1.3-.09-1.39-.1-.35-.06-.67-.12-1.02-.18.64-.33,1.66-.13,2.37-.22.05,0,.29.02.95.08.67.06,1.71.13,3.37.32,1.21-1.21,4.25-4.55,6.71-7.7,2.5-3.15,4.49-6.18,4.6-6.33,0,.27-.04.59-.08.89Z"/><path class="cls-8" d="m574.3,79.42c-.05-.01-.16-.03-.27-.06.28-.15.58-.31.86-.45.05,0,.16,0,.22-.01.38.07.7.14,1.07.23-.62.1-1.26.19-1.88.29Z"/><path class="cls-11" d="m573.15,10.64c.39.15.78.32,1.16.5,1.14.28,1.75.6,1.82.93-.12,0-.24.01-.31.04-1.32-.52-2.64-1.01-4.03-1.49l1.36.03Z"/><path class="cls-11" d="m586.05,15.87c.56.39,1.1.81,1.64,1.22-.42-.15-.82-.28-1.22-.42-.64-.26-1.27-.52-1.91-.78l-.44-.19c-.15-.24-.32-.5-.47-.73.8.29,1.6.58,2.39.9Z"/><path class="cls-11" d="m609.23,41.71c.03.1.08.2.12.25,0,.41-.05.82-.08,1.23-.13.2-.25-.27-.32-1.47.09,0,.17,0,.28,0Z"/><path class="cls-11" d="m606.73,61.82c-.16.21-.32.42-.47.63-.12-.52.57-1.43.62-2.01.14-.09.29-.2.42-.29-.2.55-.37,1.12-.57,1.67Z"/><path class="cls-2" d="m573.7,8.78c.52.15,1.03.31,1.5.45,0,.01-.02.04-.02.05-.37-.09-.34.23-1.47-.5Z"/><path class="cls-2" d="m573.49,8.72c.05.01.16.04.21.06-.05-.01-.16-.04-.21-.06Z"/><path class="cls-9" d="m608.2,62.77c-.17.99-1.21,2.56-1.48,3.36,0,.27-.3.65-1,1.52-.56,1.05-.85,2.06-1.71,3.22-.11.1-1.71,2.44-3.93,5.24-1.12,1.39-2.37,2.92-3.65,4.36-.62.73-1.26,1.44-1.89,2.11-.82.9-1.59,1.79-2.31,2.53-3.75-.49-5.1-.58-5.43-.64.28.01,1.64.06,5.37.5.7-.75,1.5-1.69,2.28-2.57.64-.7,1.28-1.45,1.92-2.23,1.32-1.53,2.59-3.17,3.75-4.67,2.27-3.03,3.92-5.59,4.04-5.82.48-.7.95-1.41,1.44-2.12.46-.94.91-1.86,1.38-2.83.21-.44.45-.92.66-1.36l.54-.61Z"/><path class="cls-7" d="m601.11,24.04c.14.03.24.01.37.04l1.32,1.26c.5.52,1.02,1.02,1.68,2.03-.46-.55-.43-.18-.93-.63-.3-.38-.64-.81-.99-1.23-.45-.47-.93-1-1.46-1.47Z"/><path class="cls-7" d="m602.91,32.8c.04.09.07.18.07.23,0-.05-.03-.14-.07-.23Z"/><path class="cls-7" d="m608.42,33.66c.19.29.4.62.59.91.19.57.4,1.2.6,1.77-.36-.43-.81-1.15-1.19-2.68Z"/></g></g><path class="cls-16" d="m567.9,51.34c1.82,3.64,3.64,7.29,5.47,10.93.46.92,4.32,1.04,4.91.2,5.47-7.75,10.94-15.5,16.41-23.25.78-1.1,1.55-2.2,2.33-3.3.45-.63-1.46-.78-1.74-.8-.64-.05-2.61-.24-3.08.43-5.47,7.75-10.94,15.5-16.41,23.25-.78,1.1-1.55,2.2-2.33,3.3l4.91.2c-1.82-3.64-3.64-7.29-5.47-10.93-.35-.71-1.83-.65-2.5-.66-.18,0-2.73.17-2.5.63h0Z"/><path class="cls-5" d="m201.69,1.75h22.31v166.91h-22.31V1.75Z"/><path class="cls-6" d="m96.26,3.96l.81,2.33-16.3,42.02-22.58,57.38h45.04l-10.82-27.12,23.61-42.36,44.71,134.66h-33.52l-12.34-34.22H46.56l-13.97,34.22H0L64.37,3.96h31.89Z"/><path class="cls-5" d="m363.31,168.57h-31.89V1.66h61.11c14.82,0,27.51,5.24,38.06,15.71,10.79,10.55,16.18,23.2,16.18,37.94v2.21c0,14.74-5.39,27.39-16.18,37.94-10.63,10.4-23.32,15.6-38.06,15.6h-29.21v57.5Zm26.07-88.58c6.67,0,12.18-2.21,16.53-6.63,4.42-4.35,6.63-9.85,6.63-16.53s-2.21-12.38-6.63-17.11c-4.42-4.66-9.93-6.98-16.53-6.98h-26.07v47.26h26.07Z"/><path class="cls-5" d="m107.4,3.75l.81,2.33-16.3,42.02-22.58,57.38h45.04l-10.82-27.12,12.47-42.15,55.86,134.45h-33.52l-12.34-34.22H57.7l-13.97,34.22H11.15L75.51,3.75h31.89Z"/><path class="cls-5" d="m677.78,1.55v136.53h61.57v30.38h-92.53V1.55h30.96Z"/><path class="cls-5" d="m811.45,0v136.53h61.57v30.38h-92.53V0h30.96Z"/><path class="cls-6" d="m287.58,47.65v31.08h-33.64v-31.08h33.64Z"/><path class="cls-5" d="m287.49,47.72v31.08h-25.08v-31.08h25.08Z"/></svg>